<svg width="64" height="64" viewBox="0 0 64 64" fill="none" xmlns="http://www.w3.org/2000/svg">
  <path d="M25.5 42C20.8 42 17 38.3 17 33.7C17 29.5 20.1 26 24.2 25.4C26.3 20.9 31 18 36.2 18C42.2 18 47.3 22 48.9 27.5C52.4 28.2 55 31.2 55 34.8C55 39 51.5 42.4 47.2 42.4H25.5V42Z" fill="#50A0F0"/>
  <path d="M25.5 44C19.7 44 15 39.4 15 33.7C15 28.8 18.4 24.6 23 23.5C25.7 18.6 30.7 15.5 36.2 15.5C42.6 15.5 48.3 19.6 50.7 25.5C54.5 26.8 57.2 30.5 57.2 34.8C57.2 40.2 52.7 44.7 47.2 44.7H25.5V44ZM36.2 18.5C31.7 18.5 27.7 21.2 25.9 25.3L25.3 26.7L23.8 27C20.4 27.6 18 30.4 18 33.7C18 37.8 21.3 41 25.5 41H47.2C51 41 54.2 37.9 54.2 34.1C54.2 31 52 28.3 48.9 27.6L47.9 27.4L47.7 26.4C46.5 21.8 41.7 18.5 36.2 18.5Z" fill="#2B7CD3"/>
</svg>
