<svg width="64" height="64" viewBox="0 0 64 64" fill="none" xmlns="http://www.w3.org/2000/svg">
  <circle cx="43" cy="21" r="9" fill="#31C0BA"/>
  <circle cx="45" cy="41" r="11" fill="#0A6C74"/>
  <circle cx="25" cy="32" r="14" fill="#119DA4"/>
  <path d="M29.6 22.4C27.1 21.2 24.1 21.3 21.8 22.8C19.5 24.2 18.1 26.8 18 29.5C17.8 34.7 22.5 38.7 27.5 37.7C30.2 37.2 32.4 35.2 33.2 32.6C34 30.1 33.4 27.2 31.6 25.2L28.8 28C29.5 28.8 29.8 30 29.4 31.1C29 32.2 28 33 26.9 33.2C24.7 33.6 22.7 31.9 22.8 29.7C22.9 28.5 23.5 27.4 24.5 26.8C25.5 26.2 26.8 26.1 27.9 26.6L29.6 22.4Z" fill="white"/>
</svg>
